<?xml version="1.0" encoding="utf-8"?>
<!-- Generator: Adobe Illustrator 15.1.0, SVG Export Plug-In . SVG Version: 6.00 Build 0)  -->
<!DOCTYPE svg PUBLIC "-//W3C//DTD SVG 1.1//EN" "http://www.w3.org/Graphics/SVG/1.1/DTD/svg11.dtd">
<svg version="1.1" id="Layer_1" xmlns="http://www.w3.org/2000/svg" xmlns:xlink="http://www.w3.org/1999/xlink" x="0px" y="0px"
	 width="2200px" height="1800px" viewBox="0 0 2200 1800" enable-background="new 0 0 2200 1800" xml:space="preserve">
<g>
	<g>
		<path fill="#E12323" d="M521.449,981.951c-158.242,228.781-234.421,449.871-261.931,543.309l268.541-146.075
			c3.175-1.752,6.624-2.586,10.032-2.586c6.979,0,13.782,3.476,17.765,9.758l135.509,213.617
			c14.645-99.65,54.555-311.639,150.153-522.998c32.396-71.594,71.238-139.396,107.821-197.029
			c-63.244,26.142-198.616,75.919-353.231,95.135C570.446,978.297,545.564,980.514,521.449,981.951z"/>
		<path fill="#E12323" d="M1603.905,975.108c-154.629-19.229-290.015-69.007-353.245-95.135
			c36.597,57.606,75.439,125.408,107.821,197.029c95.612,211.359,135.522,423.348,150.153,522.998l135.536-213.617
			c5.939-9.348,18.065-12.509,27.783-7.199l268.5,146.048c-27.523-93.438-103.647-314.5-261.903-543.322
			C1654.463,980.514,1629.554,978.297,1603.905,975.108z"/>
		<path fill="#E12323" d="M1994.98,527.974c-12.865-218.503-56.374-271.948-96.175-304.892
			c-52.24-43.208-259.945-51.557-678.092,212.016c33.449,25.142,55.525,64.012,66.68,116.69c1.588,7.541,2.957,15.397,4.106,23.526
			c1.136,8.075,2.053,16.424,2.737,25.074c1.067,13.535,1.82,27.537,1.82,42.469c0,69.239-11.784,123.246-35.38,162.676
			c46.206-18.175,122.493-45.397,213.631-67.117c8.021-1.917,16.164-3.765,24.417-5.557c8.171-1.793,16.438-3.545,24.813-5.242
			c25.922-5.242,52.692-9.896,80.093-13.659c43.741-6.009,86.237-9.047,126.394-9.047c119.77,0,209.758,26.839,253.157,71.922
			C1992.571,715.601,2000.865,628.199,1994.98,527.974z"/>
		<path fill="#C31414" d="M1947.133,800.306c-36.926-32.738-115.992-53.35-217.135-53.35c-22.186,0-45.233,1.095-68.788,3.038
			c-17.039,1.396-34.284,3.189-51.857,5.611c-17.231,2.368-34.298,5.119-51.091,8.171c-8.28,1.479-16.465,3.079-24.595,4.708
			c-8.157,1.629-16.232,3.34-24.238,5.105c-45.891,10.128-88.62,21.98-126.285,33.723c-43.755,13.646-80.64,27.154-107.109,37.474
			c1.643,0.657,3.504,1.383,5.201,2.053c66.215,26.251,190.35,69.459,327.83,86.539c12.742,1.588,25.292,2.874,37.665,4.011
			c9.334,0.876,18.6,1.628,27.715,2.23c9.047,0.589,17.929,0.999,26.716,1.354c11.195,0.425,22.199,0.685,32.915,0.685
			c120.208,0,204.489-26.907,228.632-70.361c4.612-8.376,7.295-17.272,7.295-26.784c0-0.014-0.014-0.041-0.014-0.055
			C1969.989,828.144,1961.777,813.294,1947.133,800.306z"/>
		<path fill="#E12323" d="M596.368,713.958c27.387,3.764,54.171,8.417,80.093,13.659c8.362,1.697,16.629,3.449,24.8,5.242
			c8.294,1.819,16.52,3.695,24.567,5.611c87.606,20.885,161.554,46.861,208.184,64.996c-23.391-39.499-35.339-92.958-35.339-160.582
			c0-13.796,0.685-26.771,1.656-39.417c0.671-8.745,1.574-17.218,2.724-25.402c1.218-8.69,2.696-17.08,4.448-25.142
			c11.62-53.787,34.818-93.643,69.732-119.071c-416.751-262.259-623.908-253.91-676.039-210.771
			c-39.787,32.93-83.323,86.389-96.161,304.892c-5.912,100.403,2.368,187.736,11.771,248.9
			c43.399-45.11,133.388-71.963,253.198-71.963C510.145,704.911,552.654,707.949,596.368,713.958z"/>
		<path fill="#C31414" d="M498.839,940.988c8.773-0.343,17.655-0.767,26.702-1.355c9.088-0.603,18.367-1.396,27.701-2.23
			c12.373-1.137,24.909-2.423,37.665-4.011c137.617-17.121,261.656-60.274,327.816-86.525c1.725-0.684,3.572-1.409,5.229-2.066
			c-26.456-10.333-63.368-23.814-107.165-37.487c-37.609-11.729-80.284-23.567-126.133-33.682
			c-8.021-1.766-16.123-3.49-24.321-5.133c-8.13-1.643-16.328-3.216-24.608-4.708c-16.766-3.052-33.818-5.803-51.077-8.171
			c-17.532-2.422-34.791-4.201-51.803-5.611c-23.568-1.943-46.644-3.038-68.843-3.038c-101.115,0-180.182,20.611-217.107,53.336
			c-14.658,12.988-22.87,27.824-22.897,44.139c0,0.027,0,0.041,0,0.068c0,9.539,2.669,18.449,7.322,26.839
			c24.171,43.454,108.438,70.334,228.604,70.334C476.64,941.686,487.644,941.412,498.839,940.988z"/>
		<path fill="#E12323" d="M1253.78,626.529c-0.287-9.143-0.849-17.778-1.588-26.018c-0.794-8.732-1.807-16.958-3.065-24.772
			c-10.292-63.943-35.981-97.953-67.419-115.637c-5.338-3.024-10.84-5.584-16.465-7.732c-6.392-2.423-12.934-4.325-19.571-5.816
			c-15.973-3.545-32.396-4.653-48.327-4.653c-13.728,0-28.345,0.903-42.962,3.818c-6.651,1.313-13.289,3.079-19.845,5.352
			c-6.104,2.135-12.14,4.722-18.025,7.883c-31.615,16.943-58.728,49.941-70.088,113.077c-1.382,7.705-2.573,15.808-3.477,24.443
			c-0.834,8.157-1.409,16.821-1.778,25.84c-0.274,6.639-0.466,13.427-0.466,20.53c0,90.918,22.788,141.216,54.007,168.767
			c2.012,1.793,4.078,3.477,6.158,5.078c3.572,2.723,7.199,5.214,10.908,7.432c6.255,3.723,12.701,6.774,19.257,9.279
			c14.918,5.652,30.397,8.417,45.411,9.607c7.117,0.562,14.125,0.808,20.899,0.808c0.041,0,0.068,0,0.109,0
			c1.684,0,3.381-0.027,5.078-0.068c6.925-0.109,13.946-0.438,20.968-1.136c15.15-1.479,30.287-4.599,44.604-10.416
			c6.528-2.655,12.838-5.857,18.942-9.744c2.449-1.561,4.872-3.244,7.226-5.023c3.23-2.449,6.433-5.077,9.499-7.992
			c29.672-28.099,50.283-78.204,50.283-166.55C1254.013,637.26,1253.917,631.826,1253.78,626.529z"/>
	</g>
</g>
</svg>
