<svg height="512pt" viewBox="0 -16 512.01422 512" width="512pt" xmlns="http://www.w3.org/2000/svg"><path d="m504.003906 456.054688h-496c-4.421875 0-7.99999975-3.574219-7.99999975-8v-175.984376c0-4.421874 3.57812475-8 7.99999975-8h496c4.425782 0 8 3.578126 8 8v175.984376c0 4.425781-3.574218 8-8 8zm-488-16h480v-159.984376h-480zm0 0"/><path d="m104.003906 480.054688h-96c-4.421875 0-7.99999975-3.574219-7.99999975-8v-24c0-4.421876 3.57812475-8 7.99999975-8 4.425782 0 8 3.578124 8 8v16h80v-16c0-4.421876 3.578125-8 8-8 4.425782 0 8 3.578124 8 8v24c0 4.425781-3.574218 8-8 8zm0 0"/><path d="m504.003906 480.054688h-96c-4.421875 0-8-3.574219-8-8v-24c0-4.421876 3.578125-8 8-8 4.425782 0 8 3.578124 8 8v16h80v-16c0-4.421876 3.578125-8 8-8 4.425782 0 8 3.578124 8 8v24c0 4.425781-3.574218 8-8 8zm0 0"/><path d="m8.003906 56.007812c-4.421875 0-7.99999975-3.578124-7.99999975-8 0-26.472656 21.52734375-47.9999995 47.99999975-47.9999995 4.425782 0 8 3.5742185 8 7.9999995 0 4.421876-3.574218 8-8 8-17.648437 0-32 14.351563-32 32 0 4.421876-3.574218 8-8 8zm0 0"/><path d="m504.003906 56.007812c-4.421875 0-8-3.578124-8-8 0-17.648437-14.351562-32-32-32-4.421875 0-8-3.578124-8-8 0-4.425781 3.578125-7.9999995 8-7.9999995 26.472656 0 48 21.5273435 48 47.9999995 0 4.421876-3.574218 8-8 8zm0 0"/><path d="m464.003906 16.007812h-416c-4.421875 0-8-3.578124-8-8 0-4.425781 3.578125-7.9999995 8-7.9999995h416c4.425782 0 8 3.5742185 8 7.9999995 0 4.421876-3.574218 8-8 8zm0 0"/><path d="m504.003906 96.007812c-4.421875 0-8-3.578124-8-8v-40c0-4.425781 3.578125-8 8-8 4.425782 0 8 3.574219 8 8v40c0 4.421876-3.574218 8-8 8zm0 0"/><path d="m504.003906 96.007812h-496c-4.421875 0-7.99999975-3.578124-7.99999975-8 0-4.425781 3.57812475-8 7.99999975-8h496c4.425782 0 8 3.574219 8 8 0 4.421876-3.574218 8-8 8zm0 0"/><path d="m8.003906 96.007812c-4.421875 0-7.99999975-3.578124-7.99999975-8v-40c0-4.425781 3.57812475-8 7.99999975-8 4.425782 0 8 3.574219 8 8v40c0 4.421876-3.574218 8-8 8zm0 0"/><path d="m40.003906 192.078125c-3.351562 0-6.480468-2.117187-7.589844-5.472656l-32-96.070313c-1.394531-4.191406.871094-8.726562 5.0625-10.128906 4.214844-1.367188 8.726563.871094 10.128907 5.066406l32 96.070313c1.390625 4.191406-.871094 8.726562-5.066407 10.128906-.847656.269531-1.703124.40625-2.535156.40625zm0 0"/><path d="m472.003906 192.078125c-.832031 0-1.6875-.136719-2.527344-.40625-4.183593-1.402344-6.457031-5.929687-5.0625-10.128906l32-96.070313c1.390626-4.183594 5.894532-6.433594 10.125-5.066406 4.1875 1.402344 6.457032 5.929688 5.066407 10.128906l-32 96.070313c-1.121094 3.355469-4.25 5.472656-7.601563 5.472656zm0 0"/><path d="m8.003906 280.144531c-.902344 0-1.832031-.160156-2.734375-.488281-4.152343-1.503906-6.296875-6.097656-4.785156-10.25l32-88.0625c1.503906-4.152344 6.089844-6.28125 10.25-4.785156 4.148437 1.503906 6.292969 6.097656 4.78125 10.25l-32 88.0625c-1.175781 3.257812-4.246094 5.273437-7.511719 5.273437zm0 0"/><path d="m504.003906 280.144531c-3.261718 0-6.335937-2.015625-7.511718-5.265625l-32-88.0625c-1.511719-4.160156.632812-8.746094 4.785156-10.25 4.167968-1.503906 8.742187.625 10.246094 4.785156l32 88.0625c1.511718 4.160157-.628907 8.746094-4.78125 10.25-.90625.320313-1.832032.480469-2.738282.480469zm0 0"/><path d="m240.558594 192.078125h-200.554688c-4.421875 0-8-3.574219-8-8 0-4.421875 3.578125-8 8-8h200.554688c4.421875 0 8 3.578125 8 8 0 4.425781-3.578125 8-8 8zm0 0"/><path d="m48.53125 280.070312c-1.359375 0-2.734375-.34375-4-1.078124-3.824219-2.210938-5.132812-7.113282-2.910156-10.929688 12.839844-22.191406 36.742187-35.984375 62.351562-35.984375s49.496094 13.785156 62.34375 35.960937c2.214844 3.824219.914063 8.71875-2.910156 10.929688-3.800781 2.222656-8.714844.910156-10.929688-2.914062-10-17.253907-28.582031-27.976563-48.503906-27.976563s-38.503906 10.730469-48.503906 28c-1.488281 2.5625-4.167969 3.992187-6.9375 3.992187zm0 0"/><path d="m103.972656 248.078125c-2.046875 0-4.105468-.78125-5.664062-2.34375-3.121094-3.136719-3.121094-8.191406.007812-11.320313l24-23.96875c3.128906-3.109374 8.191406-3.117187 11.320313.011719 3.121093 3.132813 3.121093 8.191407-.007813 11.316407l-24 23.96875c-1.558594 1.554687-3.609375 2.335937-5.65625 2.335937zm0 0"/><path d="m127.972656 224.109375c-2.046875 0-4.105468-.78125-5.664062-2.351563l-5.648438-5.65625h-25.375l-5.648437 5.65625c-3.128907 3.144532-8.183594 3.128907-11.3125.015626-3.136719-3.125-3.136719-8.183594-.015625-11.308594l7.992187-8.007813c1.503907-1.507812 3.535157-2.355469 5.664063-2.355469h32.015625c2.128906 0 4.167969.839844 5.664062 2.355469l7.992188 8.007813c3.121093 3.125 3.121093 8.183594-.015625 11.308594-1.558594 1.554687-3.601563 2.335937-5.648438 2.335937zm0 0"/><path d="m103.972656 248.078125c-2.046875 0-4.097656-.78125-5.65625-2.335937l-24-23.96875c-3.128906-3.125-3.128906-8.183594-.007812-11.316407 3.128906-3.128906 8.191406-3.121093 11.320312-.011719l24 23.96875c3.128906 3.128907 3.128906 8.183594.007813 11.320313-1.558594 1.5625-3.617188 2.34375-5.664063 2.34375zm0 0"/><path d="m224.011719 344.0625c-4.421875 0-8-3.574219-8-8v-63.917969c0-4.425781 3.578125-8 8-8 4.425781 0 8 3.574219 8 8v63.917969c0 4.425781-3.574219 8-8 8zm0 0"/><path d="m288.019531 344.0625h-64.007812c-4.421875 0-8-3.574219-8-8 0-4.421875 3.578125-8 8-8h64.007812c4.425781 0 8 3.578125 8 8 0 4.425781-3.574219 8-8 8zm0 0"/><path d="m288.019531 344.0625c-4.421875 0-8-3.574219-8-8v-63.917969c0-4.425781 3.578125-8 8-8 4.425781 0 8 3.574219 8 8v63.917969c0 4.425781-3.574219 8-8 8zm0 0"/><path d="m256.019531 312.101562c-4.421875 0-8-3.574218-8-8v-32.046874c0-4.421876 3.578125-8 8-8 4.425781 0 8 3.578124 8 8v32.046874c0 4.425782-3.574219 8-8 8zm0 0"/><path d="m224.003906 96.007812c-4.421875 0-8-3.578124-8-8v-31.953124c0-4.421876 3.578125-8 8-8 4.425782 0 8 3.578124 8 8v31.953124c0 4.421876-3.574218 8-8 8zm0 0"/><path d="m288.019531 64.054688h-64.015625c-4.421875 0-8-3.574219-8-8 0-4.421876 3.578125-8 8-8h64.015625c4.425781 0 8 3.578124 8 8 0 4.425781-3.574219 8-8 8zm0 0"/><path d="m288.019531 96.007812c-4.421875 0-8-3.578124-8-8v-31.953124c0-4.421876 3.578125-8 8-8 4.425781 0 8 3.578124 8 8v31.953124c0 4.421876-3.574219 8-8 8zm0 0"/><path d="m448.09375 280.054688c-13.226562 0-23.992188-10.765626-23.992188-23.992188 0-13.222656 10.765626-23.984375 23.992188-23.984375 13.222656 0 23.984375 10.761719 23.984375 23.984375 0 13.226562-10.761719 23.992188-23.984375 23.992188zm0-31.976563c-4.410156 0-7.992188 3.578125-7.992188 7.984375 0 4.410156 3.582032 7.992188 7.992188 7.992188 4.40625 0 7.984375-3.582032 7.984375-7.992188 0-4.40625-3.578125-7.984375-7.984375-7.984375zm0 0"/><path d="m456.101562 312.070312c-13.226562 0-23.992187-10.765624-23.992187-23.992187 0-13.222656 10.765625-23.984375 23.992187-23.984375 13.222657 0 23.984376 10.761719 23.984376 23.984375 0 13.226563-10.761719 23.992187-23.984376 23.992187zm0-31.976562c-4.410156 0-7.992187 3.578125-7.992187 7.984375 0 4.410156 3.582031 7.992187 7.992187 7.992187 4.40625 0 7.984376-3.582031 7.984376-7.992187 0-4.40625-3.578126-7.984375-7.984376-7.984375zm0 0"/><path d="m456.101562 344.085938c-13.226562 0-23.992187-10.765626-23.992187-23.992188 0-13.222656 10.765625-23.984375 23.992187-23.984375 13.222657 0 23.984376 10.761719 23.984376 23.984375 0 13.226562-10.761719 23.992188-23.984376 23.992188zm0-31.976563c-4.410156 0-7.992187 3.578125-7.992187 7.984375 0 4.410156 3.582031 7.992188 7.992187 7.992188 4.40625 0 7.984376-3.582032 7.984376-7.992188 0-4.40625-3.578126-7.984375-7.984376-7.984375zm0 0"/><path d="m456.101562 376.101562c-13.226562 0-23.992187-10.765624-23.992187-23.992187 0-13.222656 10.765625-23.980469 23.992187-23.980469 13.222657 0 23.984376 10.757813 23.984376 23.980469 0 13.226563-10.761719 23.992187-23.984376 23.992187zm0-31.972656c-4.410156 0-7.992187 3.574219-7.992187 7.980469 0 4.410156 3.582031 7.992187 7.992187 7.992187 4.40625 0 7.984376-3.582031 7.984376-7.992187 0-4.40625-3.578126-7.980469-7.984376-7.980469zm0 0"/><path d="m456.101562 408.117188c-13.226562 0-23.992187-10.765626-23.992187-23.988282 0-13.226562 10.765625-23.984375 23.992187-23.984375 13.222657 0 23.984376 10.757813 23.984376 23.984375 0 13.222656-10.761719 23.988282-23.984376 23.988282zm0-31.972657c-4.410156 0-7.992187 3.574219-7.992187 7.984375 0 4.40625 3.582031 7.988282 7.992187 7.988282 4.40625 0 7.984376-3.582032 7.984376-7.988282 0-4.410156-3.578126-7.984375-7.984376-7.984375zm0 0"/><path d="m456.050781 424.054688c-.007812 0-.015625 0-.023437 0-4.421875-.015626-7.992188-3.597657-7.976563-8.023438l.050781-15.9375c.015626-4.414062 3.589844-7.976562 8-7.976562h.023438c4.421875.019531 7.992188 3.601562 7.976562 8.027343l-.050781 15.933594c-.015625 4.417969-3.589843 7.976563-8 7.976563zm0 0"/><path d="m400.003906 280.054688c-4.421875 0-8-3.574219-8-8 0-52.9375-43.0625-96-96-96-52.933594 0-96 43.0625-96 96 0 4.425781-3.574218 8-8 8-4.421875 0-8-3.574219-8-8 0-61.757813 50.242188-112 112-112 61.761719 0 112 50.242187 112 112 0 4.425781-3.574218 8-8 8zm0 0"/><path d="m375.996094 280.054688c-4.421875 0-8-3.574219-8-8 0-39.703126-32.296875-72-72-72s-72 32.296874-72 72c0 4.425781-3.574219 8-8 8-4.421875 0-8-3.574219-8-8 0-48.519532 39.480468-88 88-88 48.519531 0 88 39.480468 88 88 0 4.425781-3.574219 8-8 8zm0 0"/><path d="m472.003906 192.078125h-120.519531c-4.421875 0-8-3.574219-8-8 0-4.421875 3.578125-8 8-8h120.519531c4.425782 0 8 3.578125 8 8 0 4.425781-3.574218 8-8 8zm0 0"/><path d="m296.003906 200.054688c-4.421875 0-8-3.574219-8-8v-24c0-4.421876 3.578125-8 8-8 4.425782 0 8 3.578124 8 8v24c0 4.425781-3.574218 8-8 8zm0 0"/><path d="m256.019531 210.765625c-2.765625 0-5.453125-1.429687-6.933593-4l-12-20.78125c-2.210938-3.832031-.898438-8.722656 2.925781-10.929687 3.808593-2.207032 8.714843-.902344 10.929687 2.929687l12 20.78125c2.207032 3.832031.894532 8.722656-2.929687 10.929687-1.253907.726563-2.632813 1.070313-3.992188 1.070313zm0 0"/><path d="m226.726562 240.039062c-1.363281 0-2.738281-.34375-3.992187-1.070312l-20.785156-11.992188c-3.832031-2.210937-5.144531-7.105468-2.929688-10.929687 2.21875-3.824219 7.105469-5.144531 10.929688-2.929687l20.785156 11.992187c3.832031 2.210937 5.140625 7.105469 2.925781 10.929687-1.488281 2.558594-4.167968 4-6.933594 4zm0 0"/><path d="m365.285156 240.054688c-2.769531 0-5.457031-1.441407-6.9375-4-2.207031-3.832032-.894531-8.71875 2.929688-10.925782l20.808594-12c3.832031-2.203125 8.710937-.890625 10.925781 2.925782 2.207031 3.832031.898437 8.71875-2.925781 10.929687l-20.808594 12c-1.265625.726563-2.632813 1.070313-3.992188 1.070313zm0 0"/><path d="m335.988281 210.773438c-1.359375 0-2.734375-.34375-3.992187-1.070313-3.832032-2.207031-5.144532-7.113281-2.925782-10.929687l12.015626-20.796876c2.207031-3.832031 7.109374-5.144531 10.925781-2.929687 3.832031 2.207031 5.144531 7.113281 2.929687 10.929687l-12.015625 20.796876c-1.480469 2.570312-4.167969 4-6.9375 4zm0 0"/></svg>