<?xml version="1.0" encoding="iso-8859-1"?>
<!-- Generator: Adobe Illustrator 19.0.0, SVG Export Plug-In . SVG Version: 6.00 Build 0)  -->
<svg version="1.1" id="Capa_1" xmlns="http://www.w3.org/2000/svg" xmlns:xlink="http://www.w3.org/1999/xlink" x="0px" y="0px"
	 viewBox="0 0 512 512" style="enable-background:new 0 0 512 512;" xml:space="preserve">
<g>
	<g>
		<path d="M419.792,156.115c-3.469-2.125-7.875-2.083-11.323,0.135c-3.438,2.208-5.313,6.188-4.823,10.25
			c1.135,9.385,1.688,17.729,1.688,25.5c0,8.219-0.531,16.823-1.594,25.563c-0.406,3.385,0.823,6.76,3.313,9.083
			C433.458,251.281,448,284.438,448,320c0,70.583-57.417,128-128,128c-47.613,0-89.152-26.181-111.201-64.852
			C306.814,374.595,384,292.194,384,192C384,86.135,297.865,0,192,0S0,86.135,0,192c0,67.385,34.469,128.656,92.208,163.875
			c3.5,2.135,7.865,2.083,11.323-0.135c3.438-2.208,5.313-6.188,4.823-10.25c-1.135-9.375-1.688-17.708-1.688-25.49
			c0-8.229,0.531-16.833,1.594-25.563c0.406-3.385-0.823-6.76-3.313-9.083C78.542,260.719,64,227.563,64,192
			c0-70.583,57.417-128,128-128c47.613,0,89.152,26.181,111.201,64.852C205.186,137.405,128,219.806,128,320
			c0,105.865,86.135,192,192,192s192-86.135,192-192C512,252.615,477.531,191.354,419.792,156.115z M320,192
			c0,70.583-57.417,128-128,128C192,249.417,249.417,192,320,192z"/>
	</g>
</g>
<g>
</g>
<g>
</g>
<g>
</g>
<g>
</g>
<g>
</g>
<g>
</g>
<g>
</g>
<g>
</g>
<g>
</g>
<g>
</g>
<g>
</g>
<g>
</g>
<g>
</g>
<g>
</g>
<g>
</g>
</svg>
