<svg height="512pt" viewBox="0 0 511 512" width="512pt" xmlns="http://www.w3.org/2000/svg"><path d="m512.3125 356.882812c-.4375-4.996093-3.050781-9.546874-7.144531-12.441406l-52.433594-82.398437v-202.308594c-.039063-32.976563-26.761719-59.6953125-59.734375-59.734375h-273.066406c-32.976563.0390625-59.695313 26.757812-59.734375 59.734375v202.308594l-52.4375 82.398437c-4.09375 2.894532-6.703125 7.445313-7.140625 12.441406v.3125c0 .402344-.121094.796876-.121094 1.203126v93.867187c.039062 32.976563 26.757812 59.695313 59.734375 59.734375h392.5c32.972656-.039062 59.695313-26.757812 59.730469-59.734375v-93.867187c0-.40625-.09375-.800782-.117188-1.203126-.019531-.109374-.019531-.203124-.035156-.3125zm-482.339844-15.550781 43.445313-68.265625h40.960937c-.710937.417969-1.476562.855469-2.167968 1.246094-14.664063 8.488281-27.460938 19.855469-37.617188 33.417969-7.285156 9.886719-11.992188 21.4375-13.6875 33.601562zm363.027344-290.132812c4.699219.027343 8.503906 3.832031 8.53125 8.535156v196.265625h-37.136719c-14.605469-30.886719-41.773437-54.015625-74.597656-63.503906l58.761719-76.359375c.179687-.300781.335937-.617188.46875-.945313.300781-.476562.554687-.980468.75-1.511718.175781-.554688.292968-1.125.351562-1.707032.089844-.339844.15625-.6875.203125-1.039062-.027343-.164063-.058593-.328125-.101562-.488282-.148438-1.09375-.421875-2.164062-.8125-3.199218-.570313-.9375-1.234375-1.816406-1.988281-2.617188-.117188-.113281-.175782-.257812-.296876-.359375l-42.667968-34.132812c-1.511719-1.210938-3.394532-1.871094-5.332032-1.871094h-85.332031c-1.941406 0-3.820312.660156-5.335937 1.871094l-42.664063 34.132812c-.121093.101563-.179687.246094-.300781.359375-.75.800782-1.417969 1.679688-1.988281 2.617188-.390625 1.035156-.660157 2.105468-.808594 3.199218-.042969.160157-.078125.324219-.105469.488282.046875.339844.117188.675781.207032 1.007812.054687.578125.171874 1.152344.347656 1.707032.199218.527343.449218 1.03125.753906 1.507812.128906.328125.289062.644531.46875.949219l58.757812 76.355469c-32.832031 9.492187-60.003906 32.632812-74.597656 63.539062h-37.136718v-196.265625c.027343-4.703125 3.832031-8.507813 8.535156-8.535156zm-53.207031 238.082031c-1.539063-7.425781-4.089844-14.605469-7.585938-21.335938-4.355469-8.394531-10.09375-15.992187-16.972656-22.484374-.230469-.21875-.476563-.421876-.734375-.613282-7.574219-7.054687-16.355469-12.691406-25.921875-16.640625-20.585937-8.386719-43.636719-8.386719-64.222656 0-9.457031 3.921875-18.148438 9.488281-25.660157 16.445313-.351562.261718-.683593.546875-1 .851562-6.875 6.476563-12.609374 14.0625-16.972656 22.441406-3.492187 6.730469-6.046875 13.910157-7.585937 21.335938-6.238281 1.261719-12.253907 2.695312-18.074219 4.265625.34375-2.558594.703125-5.121094 1.238281-7.679687 1.277344-6.003907 3.085938-11.878907 5.402344-17.5625.121094-.253907.359375-.769532.453125-1.03125.09375-.265626.167969-.496094.246094-.769532 16.269531-37.527344 53.292968-61.792968 94.195312-61.742187 40.90625.054687 77.863282 24.417969 94.035156 61.992187.097657.339844.21875.675782.355469 1.003906 2.429688 5.851563 4.316407 11.914063 5.640625 18.109376.539063 2.558593.898438 5.121093 1.238282 7.679687-5.828126-1.542969-11.800782-2.976563-18.074219-4.265625zm-60.746094-169.816406-21.003906 68.328125c-.527344 0-1.046875-.058594-1.578125-.058594-.527344 0-1.046875.050781-1.578125.058594l-21-68.328125zm-36.113281-17.066406 13.53125-13.53125 13.535156 13.53125zm53.972656 17.066406h27.5625l-45.894531 59.640625zm-2.773438-17.066406-17.066406-17.066407h19.070313l21.332031 17.066407zm-75.332031 0h-23.339843l21.332031-17.066407h19.074219zm-2.773437 17.066406 18.328125 59.640625-45.890625-59.640625zm-137.976563 221.867187c1.648438-8.570312 5.199219-16.664062 10.394531-23.679687 8.824219-11.6875 19.917969-21.472656 32.613282-28.773438 5.246094-3.191406 10.65625-6.09375 16.214844-8.703125 1.058593-.496093 2.207031-.964843 3.292968-1.453125-.300781 1.222656-.691406 2.425782-.949218 3.644532-1.109376 5.457031-1.824219 10.988281-2.140626 16.546874-4.554687 1.597657-8.867187 3.261719-12.800781 5.007813-3.117187 1.320313-6.152343 2.824219-9.09375 4.5-3.980469 2.445313-5.25 7.640625-2.851562 11.648437 2.398437 4.007813 7.574219 5.34375 11.613281 2.992188 2.335938-1.296875 4.734375-2.472656 7.195312-3.515625 7.753907-3.332031 15.71875-6.144531 23.847657-8.414063 13.578125-3.792968 27.402343-6.644531 41.371093-8.53125 3.085938-.347656 5.734376-2.34375 6.925782-5.207031 1.191406-2.867187.730468-6.152343-1.199219-8.582031-1.933594-2.429688-5.03125-3.621094-8.089844-3.109375-.929687.128906-1.835937.292969-2.765625.429687 1.128906-3.554687 2.554688-7.007812 4.265625-10.320312 3.363281-6.476562 7.753907-12.363281 13.007813-17.433594.246094-.183594.484375-.382812.707031-.59375 6.179687-5.867187 13.382813-10.546875 21.257813-13.808594 16.410156-6.683593 34.785156-6.683593 51.199218 0 7.71875 3.171876 14.796875 7.71875 20.898438 13.414063.351562.382813.738281.734375 1.152344 1.050781 5.222656 5.046875 9.589843 10.910156 12.933593 17.355469 1.714844 3.3125 3.140625 6.761719 4.269531 10.316406-.929687-.136719-1.835937-.296875-2.765624-.425781-3.066407-.519531-6.167969.667969-8.105469 3.101562-1.933594 2.433594-2.390625 5.726563-1.195313 8.59375 1.195313 2.871094 3.855469 4.863282 6.945313 5.199219 13.96875 1.890625 27.792969 4.742188 41.371093 8.535157 8.140626 2.265624 16.125 5.078124 23.890626 8.414062 2.449218 1.039062 4.84375 2.207031 7.167968 3.5 4.03125 2.320312 9.179688.988281 11.578125-3 2.398438-3.988281 1.15625-9.160156-2.789062-11.628906-2.941407-1.675782-5.976563-3.175782-9.09375-4.496094-3.96875-1.707031-8.269531-3.414062-12.800781-5-.320313-5.566406-1.039063-11.101562-2.152344-16.5625-.253906-1.222656-.648438-2.425781-.945313-3.636719 1.082031.488281 2.226563.957031 3.285157 1.449219 5.554687 2.613281 10.96875 5.523438 16.214843 8.714844 12.683594 7.300781 23.765625 17.085937 32.585938 28.765625 5.1875 7.023437 8.730469 15.121093 10.367187 23.695312zm373.972657 0c-1.683594-12.160156-6.375-23.710937-13.652344-33.601562-10.140625-13.550781-22.910156-24.914063-37.546875-33.410157-.699219-.425781-1.484375-.851562-2.203125-1.253906h40.960937l43.445313 68.265625zm-16.359376-281.597656v196.265625h-17.066406v-196.265625c-.027344-14.128906-11.472656-25.574219-25.597656-25.601563h-128v-17.066406h128c23.550781.027344 42.636719 19.113282 42.664062 42.667969zm-358.398437 0c.027344-23.554687 19.113281-42.640625 42.667969-42.667969h128v17.066406h-128c-14.128906.027344-25.574219 11.472657-25.601563 25.601563v196.265625h-17.066406zm375.46875 435.199219h-392.535156c-23.550781-.027344-42.636719-19.113282-42.667969-42.667969v-91.375l1.589844-2.492187h24.011718v85.335937c0 4.710937 3.820313 8.53125 8.53125 8.53125 4.714844 0 8.535157-3.820313 8.535157-8.53125v-85.335937h17.066406v25.601562c0 4.710938 3.820313 8.535156 8.535156 8.535156 4.710938 0 8.53125-3.824218 8.53125-8.535156v-25.601562h399.480469l1.585938 2.492187v91.375c-.027344 23.554687-19.113282 42.640625-42.664063 42.667969zm0 0"/><path d="m307.664062 375.464844h-102.398437c-14.136719 0-25.601563 11.464844-25.601563 25.601562 0 14.140625 11.464844 25.601563 25.601563 25.601563h102.398437c14.140626 0 25.601563-11.460938 25.601563-25.601563 0-14.136718-11.460937-25.601562-25.601563-25.601562zm0 34.136718h-102.398437c-4.710937 0-8.53125-3.820312-8.53125-8.535156 0-4.710937 3.820313-8.53125 8.53125-8.53125h102.398437c4.714844 0 8.535157 3.820313 8.535157 8.53125 0 4.714844-3.820313 8.535156-8.535157 8.535156zm0 0"/></svg>