<svg height="512pt" viewBox="0 -120 512 512" width="512pt" xmlns="http://www.w3.org/2000/svg"><path d="m136 272c-74.992188 0-136-61.007812-136-136s61.007812-136 136-136 136 61.007812 136 136-61.007812 136-136 136zm0-256c-66.167969 0-120 53.832031-120 120s53.832031 120 120 120 120-53.832031 120-120-53.832031-120-120-120zm0 0"/><path d="m136 248c-61.761719 0-112-50.238281-112-112s50.238281-112 112-112 112 50.238281 112 112-50.238281 112-112 112zm0-208c-52.9375 0-96 43.0625-96 96s43.0625 96 96 96 96-43.0625 96-96-43.0625-96-96-96zm0 0"/><path d="m136 200c-35.289062 0-64-28.710938-64-64s28.710938-64 64-64 64 28.710938 64 64-28.710938 64-64 64zm0-112c-26.472656 0-48 21.527344-48 48s21.527344 48 48 48 48-21.527344 48-48-21.527344-48-48-48zm0 0"/><path d="m480 272.03125h-16.015625c-17.648437 0-32-14.351562-32-32v-208.03125c0-17.648438 14.351563-32 32-32h16.015625c17.648438 0 32 14.351562 32 32v208.03125c0 17.648438-14.351562 32-32 32zm-16.015625-256.03125c-8.824219 0-16 7.175781-16 16v208.03125c0 8.824219 7.175781 16 16 16h16.015625c8.824219 0 16-7.175781 16-16v-208.03125c0-8.824219-7.175781-16-16-16zm0 0"/><path d="m439.984375 88.015625h-140.007813c-4.425781 0-8-3.574219-8-8 0-4.421875 3.574219-8 8-8h140.007813c4.421875 0 8 3.578125 8 8 0 4.425781-3.578125 8-8 8zm0 0"/><path d="m439.984375 112.015625h-140.007813c-4.425781 0-8-3.574219-8-8 0-4.421875 3.574219-8 8-8h140.007813c4.421875 0 8 3.578125 8 8 0 4.425781-3.578125 8-8 8zm0 0"/><path d="m299.976562 112.015625c-11.03125 0-20-8.96875-20-20s8.96875-20 20-20c4.421876 0 8 3.578125 8 8 0 4.425781-3.578124 8-8 8-2.199218 0-4 1.800781-4 4s1.800782 4 4 4c4.421876 0 8 3.578125 8 8 0 4.425781-3.578124 8-8 8zm0 0"/><path d="m439.984375 176h-140.007813c-4.425781 0-8-3.574219-8-8s3.574219-8 8-8h140.007813c4.421875 0 8 3.574219 8 8s-3.578125 8-8 8zm0 0"/><path d="m439.984375 200h-140.007813c-4.425781 0-8-3.574219-8-8s3.574219-8 8-8h140.007813c4.421875 0 8 3.574219 8 8s-3.578125 8-8 8zm0 0"/><path d="m299.976562 200c-11.03125 0-20-8.96875-20-20s8.96875-20 20-20c4.421876 0 8 3.574219 8 8s-3.578124 8-8 8c-2.199218 0-4 1.800781-4 4s1.800782 4 4 4c4.421876 0 8 3.574219 8 8s-3.578124 8-8 8zm0 0"/><path d="m335.984375 175.878906c-22.054687 0-40-17.941406-40-40 0-22.054687 17.945313-40 40-40s40 17.945313 40 40c0 22.058594-17.945313 40-40 40zm0-64c-13.230469 0-24 10.769532-24 24 0 13.234375 10.769531 24 24 24s24-10.765625 24-24c0-13.230468-10.769531-24-24-24zm0 0"/><path d="m336.222656 143.878906c-4.421875 0-8.039062-3.574218-8.039062-8 0-4.421875 3.535156-8 7.953125-8h.085937c4.417969 0 8 3.578125 8 8 0 4.425782-3.582031 8-8 8zm0 0"/><path d="m136.238281 64.015625c-4.421875 0-8.039062-3.574219-8.039062-8 0-4.421875 3.535156-8 7.953125-8h.085937c4.417969 0 8 3.578125 8 8 0 4.425781-3.582031 8-8 8zm0 0"/><path d="m136.238281 224.015625c-4.421875 0-8.039062-3.574219-8.039062-8 0-4.421875 3.535156-8 7.953125-8h.085937c4.417969 0 8 3.578125 8 8 0 4.425781-3.582031 8-8 8zm0 0"/><path d="m96.238281 74.734375c-4.421875 0-8.039062-3.574219-8.039062-8 0-4.421875 3.535156-8 7.953125-8h.085937c4.417969 0 8 3.578125 8 8 0 4.425781-3.582031 8-8 8zm0 0"/><path d="m176.238281 213.296875c-4.421875 0-8.039062-3.578125-8.039062-8 0-4.425781 3.535156-8 7.953125-8h.085937c4.417969 0 8 3.574219 8 8 0 4.421875-3.582031 8-8 8zm0 0"/><path d="m66.960938 104.015625c-4.425782 0-8.039063-3.574219-8.039063-8 0-4.421875 3.535156-8 7.949219-8h.089844c4.414062 0 8 3.578125 8 8 0 4.425781-3.585938 8-8 8zm0 0"/><path d="m205.519531 184.015625c-4.421875 0-8.039062-3.574219-8.039062-8 0-4.421875 3.535156-8 7.953125-8h.085937c4.417969 0 8 3.578125 8 8 0 4.425781-3.582031 8-8 8zm0 0"/><path d="m56.238281 144.015625c-4.421875 0-8.039062-3.574219-8.039062-8 0-4.421875 3.535156-8 7.953125-8h.085937c4.417969 0 8 3.578125 8 8 0 4.425781-3.582031 8-8 8zm0 0"/><path d="m216.238281 144.015625c-4.421875 0-8.039062-3.574219-8.039062-8 0-4.421875 3.535156-8 7.953125-8h.085937c4.417969 0 8 3.578125 8 8 0 4.425781-3.582031 8-8 8zm0 0"/><path d="m66.960938 184.015625c-4.425782 0-8.039063-3.574219-8.039063-8 0-4.421875 3.535156-8 7.949219-8h.089844c4.414062 0 8 3.578125 8 8 0 4.425781-3.585938 8-8 8zm0 0"/><path d="m205.519531 104.015625c-4.421875 0-8.039062-3.574219-8.039062-8 0-4.421875 3.535156-8 7.953125-8h.085937c4.417969 0 8 3.578125 8 8 0 4.425781-3.582031 8-8 8zm0 0"/><path d="m96.238281 213.296875c-4.421875 0-8.039062-3.578125-8.039062-8 0-4.425781 3.535156-8 7.953125-8h.085937c4.417969 0 8 3.574219 8 8 0 4.421875-3.582031 8-8 8zm0 0"/><path d="m176.238281 74.734375c-4.421875 0-8.039062-3.574219-8.039062-8 0-4.421875 3.535156-8 7.953125-8h.085937c4.417969 0 8 3.578125 8 8 0 4.425781-3.582031 8-8 8zm0 0"/><path d="m112 160.015625c-4.425781 0-8-3.574219-8-8v-32c0-4.421875 3.574219-8 8-8s8 3.578125 8 8v32c0 4.425781-3.574219 8-8 8zm0 0"/><path d="m160 160.015625h-48c-4.425781 0-8-3.574219-8-8 0-4.421875 3.574219-8 8-8h48c4.425781 0 8 3.578125 8 8 0 4.425781-3.574219 8-8 8zm0 0"/><path d="m160.007812 160.015625c-2.441406 0-4.832031-1.105469-6.40625-3.199219l-24-32c-2.65625-3.527344-1.9375-8.542968 1.597657-11.191406 3.527343-2.65625 8.535156-1.945312 11.191406 1.597656l24 32c2.65625 3.53125 1.9375 8.546875-1.597656 11.191406-1.433594 1.082032-3.113281 1.601563-4.785157 1.601563zm0 0"/><path d="m160 128.015625h-24c-4.425781 0-8-3.574219-8-8 0-4.421875 3.574219-8 8-8h24c4.425781 0 8 3.578125 8 8 0 4.425781-3.574219 8-8 8zm0 0"/></svg>