<?xml version="1.0" encoding="iso-8859-1"?>
<!-- Generator: Adobe Illustrator 19.0.0, SVG Export Plug-In . SVG Version: 6.00 Build 0)  -->
<svg version="1.1" id="Layer_1" xmlns="http://www.w3.org/2000/svg" xmlns:xlink="http://www.w3.org/1999/xlink" x="0px" y="0px"
	 viewBox="0 0 512.001 512.001" style="enable-background:new 0 0 512.001 512.001;" xml:space="preserve">
<g>
	<g>
		<path d="M508.875,195.125l-128-128c-2-2-4.708-3.125-7.542-3.125H138.667c-2.833,0-5.542,1.125-7.542,3.125l-128,128
			c-2.021,2.031-3.146,4.792-3.125,7.656c0.042,2.875,1.229,5.615,3.292,7.594l245.333,234.667c2.063,1.969,4.729,2.958,7.375,2.958
			c2.646,0,5.313-0.99,7.375-2.958l245.333-234.667c2.063-1.979,3.25-4.719,3.292-7.594
			C512.021,199.917,510.896,197.157,508.875,195.125z M358.675,85.334l-30.007,92.747l-54.102-92.747H358.675z M312.101,192H199.9
			L256,95.827L312.101,192z M237.434,85.334l-54.102,92.747l-30.007-92.747H237.434z M133.886,94.532L165.421,192H36.417
			L133.886,94.532z M37.242,213.334h135.079l60.533,187.102L37.242,213.334z M256,402.693l-61.263-189.359h122.526L256,402.693z
			 M279.146,400.435l60.533-187.102h135.079L279.146,400.435z M346.58,192l31.535-97.469L475.584,192H346.58z"/>
	</g>
</g>
<g>
</g>
<g>
</g>
<g>
</g>
<g>
</g>
<g>
</g>
<g>
</g>
<g>
</g>
<g>
</g>
<g>
</g>
<g>
</g>
<g>
</g>
<g>
</g>
<g>
</g>
<g>
</g>
<g>
</g>
</svg>
