<?xml version="1.0"?>
<svg xmlns="http://www.w3.org/2000/svg" viewBox="0 0 64 64" width="512" height="512"><g id="outline"><path d="M31.177,37.432C30.522,38.38,29,40.722,29,42a3,3,0,0,0,6,0c0-1.278-1.522-3.62-2.177-4.568A1.038,1.038,0,0,0,31.177,37.432ZM33,42a1,1,0,0,1-2,0,7.457,7.457,0,0,1,1-2.147A7.462,7.462,0,0,1,33,42Z"/><path d="M50.949,39.316a58.462,58.462,0,0,1,5.883-11.761,1,1,0,0,0-.46-1.484l-5-2-.744,1.858,3.879,1.55a57.651,57.651,0,0,0-5.456,11.2Z"/><rect x="46.919" y="41.5" width="3.162" height="2" transform="translate(-7.161 75.063) rotate(-71.556)"/><path d="M2.056,24.671a1,1,0,0,0,.087.844C2.261,25.712,14,45.417,14,57a1,1,0,0,0,1,1H49a1,1,0,0,0,1-1c0-11.583,11.739-31.288,11.857-31.485a1,1,0,0,0-.506-1.452c-.08-.03-8.086-3.029-14.035-5.011a7.286,7.286,0,0,1-1.7-.821c-.017-.013-.036-.023-.054-.036C42.069,15.859,42,11.222,42,11a2.846,2.846,0,0,0-.237-1.131c-.01-.029-.021-.057-.034-.086C40.69,7.521,36.781,6,32,6s-8.69,1.521-9.729,3.783q-.018.041-.033.081A2.847,2.847,0,0,0,22,11c0,.224-.069,4.861-3.56,7.2-.018.013-.037.023-.054.036a7.286,7.286,0,0,1-1.7.821c-5.949,1.982-13.955,4.981-14.035,5.011A1,1,0,0,0,2.056,24.671ZM32,8c3.856,0,6.8,1.122,7.713,2.3C38.764,12.435,35.557,14,32,14s-6.763-1.564-7.713-3.7C25.2,9.122,28.144,8,32,8Zm-8.24,4.991A11.6,11.6,0,0,0,32,16a11.6,11.6,0,0,0,8.24-3.009A11.105,11.105,0,0,0,43.489,19.1l-1.2,1.2-.006.009A2.957,2.957,0,0,0,41,20a3,3,0,0,0-3,3,2.951,2.951,0,0,0,.3,1.285l-1.008,1.008.026.026A2.961,2.961,0,0,0,36,25a3,3,0,0,0-3,3,2.951,2.951,0,0,0,.3,1.285l-1.3,1.3-1.3-1.3A2.951,2.951,0,0,0,31,28a3,3,0,0,0-3-3,2.961,2.961,0,0,0-1.319.319l.026-.026L25.7,24.285A2.951,2.951,0,0,0,26,23a3,3,0,0,0-3-3,2.957,2.957,0,0,0-1.287.3l-.006-.009-1.2-1.2A11.105,11.105,0,0,0,23.76,12.991ZM42,23a1,1,0,1,1-1-1A1,1,0,0,1,42,23Zm-5,5a1,1,0,1,1-1-1A1,1,0,0,1,37,28Zm0,14a5,5,0,0,1-10,0c0-1.906,2.816-5.884,5-8.475C34.184,36.115,37,40.092,37,42ZM29,28a1,1,0,1,1-1-1A1,1,0,0,1,29,28Zm-5-5a1,1,0,1,1-1-1A1,1,0,0,1,24,23Zm-6.684-2.052a9.193,9.193,0,0,0,1.533-.684l1.444,1.443.009.006A2.96,2.96,0,0,0,20,23a3,3,0,0,0,3,3,2.951,2.951,0,0,0,1.285-.3l1.008,1.008.026-.026A2.961,2.961,0,0,0,25,28a3,3,0,0,0,3,3,2.951,2.951,0,0,0,1.285-.3l1.348,1.348C29.007,33.955,25,38.961,25,42a7,7,0,0,0,14,0c0-3.039-4.007-8.045-5.633-9.953L34.715,30.7A2.951,2.951,0,0,0,36,31a3,3,0,0,0,3-3,2.961,2.961,0,0,0-.319-1.319l.026.026L39.715,25.7A2.951,2.951,0,0,0,41,26a3,3,0,0,0,3-3,2.957,2.957,0,0,0-.3-1.287l.009-.006,1.444-1.443a9.193,9.193,0,0,0,1.533.684c4.6,1.533,10.444,3.681,12.852,4.574C57.129,29.7,48.549,45.3,48.025,56H15.975c-.524-10.7-9.1-26.3-11.511-30.478C6.872,24.629,12.716,22.482,17.316,20.948Z"/></g></svg>
