<?xml version="1.0" encoding="iso-8859-1"?>
<!-- Generator: Adobe Illustrator 19.0.0, SVG Export Plug-In . SVG Version: 6.00 Build 0)  -->
<svg xmlns="http://www.w3.org/2000/svg" xmlns:xlink="http://www.w3.org/1999/xlink" version="1.1" id="Layer_1" x="0px" y="0px" viewBox="0 0 512 512" style="enable-background:new 0 0 512 512;" xml:space="preserve" width="512" height="512">
<g>
	<polygon points="362.069,0 334.638,28.87 483.126,177.365 512,149.931  "/>
	<path d="M270.976,92.533c38.384,3.461,74.161,19.266,101.699,46.778c28.339,28.352,43.44,64.59,46.807,101.699l42.433-42.433   L313.427,50.081L270.976,92.533z"/>
	<path d="M160.536,160.536c-52.632,52.646-52.632,138.281,0,190.928c26.323,26.309,60.894,39.463,95.464,39.463   s69.141-13.154,95.464-39.463c52.632-52.646,52.632-138.281,0-190.928C298.817,107.919,213.183,107.919,160.536,160.536z    M271,262.211V300h-30v-50.211l57.422-57.422l21.211,21.211L271,262.211z"/>
	<path d="M92.518,270.991l-42.433,42.433l148.488,148.495l42.389-42.389c-38.328-3.481-74.077-19.308-101.636-46.855   C110.988,344.33,95.887,308.097,92.518,270.991z"/>
	<polygon points="0,362.069 149.931,512 177.362,483.13 28.874,334.635  "/>
</g>















</svg>
